{"title":"The World's Fastest Indian 2005 DVDrip English Klam","uid":5972981,"size":1579386528,"categoryP":"video","categoryS":"movies","magnet":"?xt=urn:btih:2e352fafd6b4dc0a6e89ac0478c2d8b06d3b87be&amp;dn=The+World%5C%27s+Fastest+Indian+2005+DVDrip+English+Klam&amp;tr=udp%3A%2F%2Ftracker.openbittorrent.com%3A80&amp;tr=udp%3A%2F%2Fopen.demonii.com%3A1337&amp;tr=udp%3A%2F%2Ftracker.coppersurfer.tk%3A6969&amp;tr=udp%3A%2F%2Fexodus.desync.com%3A6969","seeders":1,"leechers":1,"uploader":"Klambake","files":-1,"time":1290358656,"description":"[img]http://img20.imageshack.us/img20/7155/sfastestindian.jpg[/img]\n\nWith: Anthony Hopkins, Bruce Greenwood and Diane Ladd\n\nFor 25 years in Invercargill at the south end of New Zealand, Burt Munro (1899-1978) has been working on increasing the speed of his motorcycle, a 1920 Indian. He dreams of taking it to the Bonneville Salt Flats to see how fast it will go. By the early 1960s, heart disease threatens his life, so he mortgages his house and takes a boat to Los Angeles, buys an old car, builds a makeshift trailer, gets the Indian through customs, and heads for Utah. Along the way, people he meets are charmed by his open, direct friendliness. If he makes it to Bonneville, will they let an old guy on the flats with makeshift tires, no brakes, and no chute? And will the Indian actually respond?\n\nGeneral:\n\nComplete name                    : Klambake\\The World's\\Fastest Indian.avi\nFormat                           : AVI\nFormat/Info                      : Audio Video Interleave\nFile size                        : 1.47 GiB\nDuration                         : 2h 1mn\nOverall bit rate                 : 1 728 Kbps\n\nVideo:\n\nFormat                           : MPEG-4 Visual\nFormat profile                   : Simple@L3\nFormat settings, BVOP            : No\nFormat settings, QPel            : No\nFormat settings, GMC             : No warppoints\nFormat settings, Matrix          : Default (H.263)\nCodec ID                         : XVID\nCodec ID/Hint                    : XviD\nDuration                         : 2h 1mn\nBit rate                         : 1 269 Kbps\nWidth                            : 720 pixels\nHeight                           : 576 pixels\nDisplay aspect ratio             : 5:4\nFrame rate                       : 25.000 fps\nStandard                         : PAL\nColor space                      : YUV\nChroma subsampling               : 4:2:0\nBit depth                        : 8 bits\nScan type                        : Progressive\nBits/(Pixel*Frame)               : 0.122\nStream size                      : 1.08 GiB (73%)\nWriting library                  : XviD 1.1.2 (UTC 2006-11-01)\n\nAudio:\n\nFormat                           : AC-3\nFormat/Info                      : Audio Coding 3\nMode extension                   : CM (complete main)\nCodec ID                         : 2000\nDuration                         : 2h 1mn\nBit rate mode                    : Constant\nBit rate                         : 448 Kbps\nChannel(s)                       : 2 channels\nChannel positions                : Front: L R\nSampling rate                    : 48.0 KHz\nBit depth                        : 16 bits\nStream size                      : 390 MiB (26%)\nAlignment                        : Aligned on interleaves\nInterleave, duration             : 32 ms (0.80 video frame)\n","torrent":{"xt":"urn:btih:2e352fafd6b4dc0a6e89ac0478c2d8b06d3b87be","amp;dn":"The+World%5C%27s+Fastest+Indian+2005+DVDrip+English+Klam","amp;tr":["udp%3A%2F%2Ftracker.openbittorrent.com%3A80","udp%3A%2F%2Fopen.demonii.com%3A1337","udp%3A%2F%2Ftracker.coppersurfer.tk%3A6969","udp%3A%2F%2Fexodus.desync.com%3A6969"],"infoHash":"2e352fafd6b4dc0a6e89ac0478c2d8b06d3b87be","infoHashBuffer":{"type":"Buffer","data":[46,53,47,175,214,180,220,10,110,137,172,4,120,194,216,176,109,59,135,190]},"announce":[],"urlList":[]}}